<?xml version="1.0" encoding="utf-8"?>
<!-- Generator: Adobe Illustrator 26.5.0, SVG Export Plug-In . SVG Version: 6.00 Build 0)  -->
<svg version="1.1" id="Layer_1" xmlns="http://www.w3.org/2000/svg" xmlns:xlink="http://www.w3.org/1999/xlink" x="0px" y="0px"
	 viewBox="0 0 512 512" style="enable-background:new 0 0 512 512;" xml:space="preserve">
<style type="text/css">
	.st0{fill:#FFFFFF;}
</style>
<path class="st0" d="M416,341.3c0,11.8-9.5,21.3-21.3,21.3H352c-11.8,0-21.3-9.5-21.3-21.3S340.2,320,352,320h42.7
	C406.5,320,416,329.5,416,341.3z M512,320v106.7c0,47.1-38.3,85.3-85.3,85.3H85.3C38.3,512,0,473.7,0,426.7V320
	c0-47.1,38.3-85.3,85.3-85.3h21.3V85.3C106.7,38.3,144.9,0,192,0h128c47.1,0,85.3,38.3,85.3,85.3v149.3h21.3
	C473.7,234.7,512,272.9,512,320z M149.3,234.7h213.3V85.3c0-23.5-19.1-42.7-42.7-42.7H192c-23.5,0-42.7,19.1-42.7,42.7V234.7z
	 M85.3,469.3h149.3v-192H85.3c-23.5,0-42.7,19.1-42.7,42.7v106.7C42.7,450.2,61.8,469.3,85.3,469.3z M469.3,320
	c0-23.5-19.1-42.7-42.7-42.7H277.3v192h149.3c23.5,0,42.7-19.1,42.7-42.7V320z M160,320h-42.7c-11.8,0-21.3,9.5-21.3,21.3
	c0,11.8,9.5,21.3,21.3,21.3H160c11.8,0,21.3-9.5,21.3-21.3S171.8,320,160,320z M298.7,106.7c0-11.8-9.5-21.3-21.3-21.3h-42.7
	c-11.8,0-21.3,9.5-21.3,21.3s9.5,21.3,21.3,21.3h42.7C289.1,128,298.7,118.5,298.7,106.7z"/>
</svg>
