<?xml version="1.0" encoding="utf-8"?>
<!-- Generator: Adobe Illustrator 26.5.0, SVG Export Plug-In . SVG Version: 6.00 Build 0)  -->
<svg version="1.1" id="Layer_1" xmlns="http://www.w3.org/2000/svg" xmlns:xlink="http://www.w3.org/1999/xlink" x="0px" y="0px"
	 viewBox="0 0 512 512" style="enable-background:new 0 0 512 512;" xml:space="preserve">
<style type="text/css">
	.st0{fill:#FFFFFF;}
</style>
<path class="st0" d="M234.7,277.3H64c-35.3,0-64,28.7-64,64V448c0,35.3,28.7,64,64,64h170.7V277.3z M74.7,362.7L74.7,362.7
	c0-11.8,9.6-21.3,21.3-21.3h42.7c11.8,0,21.3,9.6,21.3,21.3l0,0c0,11.8-9.6,21.3-21.3,21.3H96C84.2,384,74.7,374.4,74.7,362.7z
	 M448,277.3H277.3V512H448c35.3,0,64-28.7,64-64V341.3C512,306,483.3,277.3,448,277.3z M416,384h-42.7c-11.8,0-21.3-9.6-21.3-21.3
	l0,0c0-11.8,9.6-21.3,21.3-21.3H416c11.8,0,21.3,9.6,21.3,21.3l0,0C437.3,374.4,427.8,384,416,384z M320,0H192
	c-35.3,0-64,28.7-64,64v170.7h256V64C384,28.7,355.3,0,320,0z M277.3,106.7h-42.7c-11.8,0-21.3-9.6-21.3-21.3l0,0
	c0-11.8,9.6-21.3,21.3-21.3h42.7c11.8,0,21.3,9.6,21.3,21.3l0,0C298.7,97.1,289.1,106.7,277.3,106.7z"/>
</svg>
